<?xml version="1.0" standalone="no"?><!DOCTYPE svg PUBLIC "-//W3C//DTD SVG 1.1//EN" "http://www.w3.org/Graphics/SVG/1.1/DTD/svg11.dtd"><svg t="1539849297530" class="icon" style="" viewBox="0 0 1024 1024" version="1.1" xmlns="http://www.w3.org/2000/svg" p-id="6622" data-spm-anchor-id="a313x.7781069.0.i5" xmlns:xlink="http://www.w3.org/1999/xlink" width="200" height="200"><defs><style type="text/css"></style></defs><path d="M512.2048 841.4208C330.3424 841.4208 182.272 693.4528 182.272 511.488c0-181.9648 147.968-329.9328 329.9328-329.9328s329.9328 147.968 329.9328 329.9328C842.24 693.4528 694.1696 841.4208 512.2048 841.4208zM512.2048 212.0704c-165.0688 0-299.4176 134.3488-299.4176 299.4176S347.136 810.9056 512.2048 810.9056s299.4176-134.3488 299.4176-299.4176S677.376 212.0704 512.2048 212.0704z" p-id="6623" fill="#d9d9d9"></path><path d="M703.8976 384.2048c-8.8064-7.9872-22.3232-7.3728-30.3104 1.4336L484.7616 593.2032 348.9792 476.0576c-9.0112-7.68-22.528-6.7584-30.208 2.2528-7.7824 9.0112-6.7584 22.528 2.2528 30.208l151.552 130.7648c1.2288 1.1264 2.7648 1.7408 4.1984 2.4576 0.8192 0.4096 1.536 1.024 2.3552 1.3312 2.4576 0.9216 4.9152 1.3312 7.4752 1.3312 2.9696 0 5.9392-0.6144 8.6016-1.8432 0.9216-0.4096 1.6384-1.2288 2.4576-1.7408 1.6384-1.024 3.3792-1.8432 4.7104-3.3792l202.8544-223.0272C713.3184 405.7088 712.704 392.0896 703.8976 384.2048" p-id="6624" fill="#409EFF" data-spm-anchor-id="a313x.7781069.0.i6" class="selected"></path></svg>